<?xml version="1.0" standalone="no"?>
<!DOCTYPE svg PUBLIC "-//W3C//DTD SVG 20010904//EN"
 "http://www.w3.org/TR/2001/REC-SVG-20010904/DTD/svg10.dtd">
<svg version="1.0" xmlns="http://www.w3.org/2000/svg"
 width="1024.000000pt" height="1024.000000pt" viewBox="0 0 1024.000000 1024.000000"
 preserveAspectRatio="xMidYMid meet">
<metadata>
Created by potrace 1.14, written by Peter Selinger 2001-2017
</metadata>
<g transform="translate(0.000000,1024.000000) scale(0.100000,-0.100000)"
fill="#000000" stroke="none">
<path d="M4740 9926 c-61 -19 -79 -40 -181 -211 -31 -52 -171 -337 -184 -375
-9 -26 -76 -195 -85 -215 -9 -19 -95 -270 -139 -405 -25 -77 -130 -444 -137
-479 -3 -14 -14 -57 -25 -97 -11 -40 -22 -81 -23 -91 -2 -10 -14 -58 -26 -108
-22 -90 -47 -198 -56 -245 -3 -13 -14 -60 -24 -105 -10 -44 -30 -138 -45 -210
-14 -71 -28 -137 -30 -146 -2 -9 -6 -33 -9 -53 -3 -21 -13 -70 -20 -109 -8
-40 -17 -88 -20 -107 -3 -19 -8 -46 -11 -60 -3 -14 -7 -36 -10 -50 -2 -14 -7
-41 -10 -60 -4 -19 -8 -46 -10 -60 -4 -30 -23 -147 -29 -175 -5 -26 -15 -99
-21 -150 -3 -22 -9 -62 -15 -90 -25 -131 -34 -237 -34 -400 0 -228 22 -388 85
-605 90 -315 277 -647 487 -869 11 -11 0 -20 -61 -51 -309 -159 -659 -440
-926 -744 -321 -366 -590 -884 -719 -1386 -90 -348 -103 -490 -67 -703 3 -17
19 -70 35 -117 16 -46 28 -85 26 -87 -3 -4 -190 55 -241 76 -103 42 -279 137
-360 196 -172 123 -325 297 -418 473 -61 117 -96 214 -126 352 -40 186 -30
489 23 695 54 213 138 414 267 641 87 153 86 152 178 321 255 471 484 1001
612 1413 62 198 121 432 143 561 3 19 7 43 10 54 3 18 8 49 21 145 29 207 24
533 -9 698 -9 42 -46 177 -55 197 -99 234 -204 365 -381 477 -215 135 -534
185 -857 133 -349 -55 -619 -282 -727 -611 -17 -53 -18 -55 -42 -174 -24 -114
-22 -421 2 -545 3 -11 7 -36 10 -55 25 -164 194 -245 324 -155 72 50 99 140
76 255 -19 98 -23 153 -20 269 1 69 5 137 8 151 3 14 8 39 12 55 30 152 126
288 247 349 149 75 434 94 611 41 180 -54 296 -170 359 -358 25 -73 30 -98 47
-207 8 -53 5 -374 -4 -415 -2 -11 -7 -42 -10 -70 -4 -27 -8 -61 -11 -75 -3
-14 -7 -38 -10 -55 -5 -33 -12 -66 -20 -105 -3 -14 -7 -34 -9 -45 -37 -179
-171 -611 -226 -732 -11 -24 -20 -46 -20 -51 0 -4 -23 -61 -51 -127 -27 -66
-62 -149 -77 -185 -15 -36 -30 -66 -34 -68 -5 -2 -8 -8 -8 -13 0 -30 -222
-475 -351 -702 -22 -38 -39 -70 -39 -72 0 -2 -21 -39 -46 -82 -243 -409 -377
-861 -378 -1268 0 -103 11 -236 25 -310 5 -27 12 -63 15 -80 7 -46 32 -132 61
-210 13 -38 27 -79 31 -89 11 -40 106 -214 161 -296 256 -387 684 -672 1196
-799 66 -16 136 -32 155 -35 19 -3 46 -8 60 -11 14 -3 45 -8 70 -11 25 -3 56
-7 69 -9 13 -2 67 -7 120 -11 53 -3 107 -12 121 -19 28 -14 143 -53 181 -61
118 -25 123 -25 904 -27 l580 -2 11 -35 c7 -19 14 -57 16 -85 19 -204 179
-381 382 -421 50 -10 578 -11 616 -1 70 18 122 90 122 168 0 63 -32 118 -88
152 -57 34 -74 68 -52 105 9 15 27 29 40 32 13 4 453 6 978 5 1014 -1 972 0
1042 -48 46 -31 79 -98 90 -185 15 -122 72 -198 170 -226 60 -17 887 -15 939
2 85 29 145 132 136 232 -11 122 -86 194 -215 205 -124 10 -215 62 -274 154
-39 63 -50 108 -53 231 -5 162 -16 439 -20 500 -2 30 -7 100 -10 155 -4 55 -8
116 -10 135 -2 19 -6 76 -10 125 -3 50 -7 101 -10 115 -2 14 -7 54 -10 90 -4
36 -8 82 -11 103 -11 96 -14 124 -19 157 -2 19 -7 58 -10 85 -4 28 -9 64 -11
80 -8 57 -15 110 -18 130 -2 11 -7 40 -10 65 -12 75 -14 92 -31 190 -9 52 -25
140 -35 195 -11 55 -22 115 -25 134 -3 19 -7 37 -9 40 -2 3 -7 24 -10 46 -4
22 -14 69 -22 105 -9 36 -18 76 -20 90 -7 31 -58 239 -77 309 l-15 53 30 17
c426 231 730 534 946 941 104 195 191 459 218 655 3 22 7 45 9 52 23 71 24
481 1 603 -3 14 -7 42 -10 62 -3 21 -10 57 -15 80 -10 42 -25 132 -36 213 -3
22 -8 49 -10 61 -3 12 -7 39 -10 60 -3 21 -10 62 -15 89 -5 28 -12 64 -15 80
-4 26 -57 310 -71 385 -185 967 -457 1860 -718 2360 -130 250 -186 315 -272
314 -65 -2 -99 -30 -198 -164 -141 -191 -384 -555 -440 -660 -10 -19 -24 -42
-30 -50 -33 -40 -346 -632 -346 -653 0 -3 -17 -43 -39 -89 -21 -45 -49 -111
-62 -145 l-24 -63 -533 3 -534 2 -43 105 c-116 285 -316 669 -519 995 -59 95
-296 447 -341 506 -25 33 -45 61 -45 64 0 5 -16 26 -64 82 -50 58 -106 78
-166 59z"/>
</g>
</svg>
