<?xml version="1.0" standalone="no"?>
<!DOCTYPE svg PUBLIC "-//W3C//DTD SVG 20010904//EN"
 "http://www.w3.org/TR/2001/REC-SVG-20010904/DTD/svg10.dtd">
<svg version="1.0" xmlns="http://www.w3.org/2000/svg"
 width="512.000000pt" height="512.000000pt" viewBox="0 0 512.000000 512.000000"
 preserveAspectRatio="xMidYMid meet">
<metadata>
Created by potrace 1.14, written by Peter Selinger 2001-2017
</metadata>
<g transform="translate(0.000000,512.000000) scale(0.100000,-0.100000)"
fill="#000000" stroke="none">
<path d="M2329 4616 c-2 -2 -38 -6 -79 -10 -41 -3 -85 -8 -96 -10 -12 -3 -37
-7 -55 -10 -132 -21 -320 -76 -399 -116 -23 -12 -62 -19 -106 -21 -89 -3 -148
-19 -248 -67 -106 -51 -224 -140 -338 -255 -120 -121 -138 -141 -234 -270
-213 -287 -374 -627 -429 -907 -28 -139 -28 -319 0 -417 43 -154 143 -279 276
-346 63 -31 189 -76 217 -76 4 0 30 -3 57 -7 46 -7 78 -10 146 -13 20 -1 35
-16 74 -77 57 -90 165 -203 257 -268 85 -60 238 -135 348 -172 47 -16 87 -29
89 -31 2 -1 -3 -24 -12 -50 -52 -166 -72 -318 -71 -558 1 -309 47 -467 153
-520 61 -31 219 -5 282 47 30 25 67 94 72 136 2 24 6 45 9 47 2 3 43 -9 91
-25 120 -41 258 -68 356 -69 l53 -1 -7 -33 c-13 -61 -8 -98 17 -116 58 -41
163 -65 271 -63 64 2 109 21 132 55 13 21 52 121 60 157 2 8 4 16 5 18 2 1 3
5 4 10 1 4 5 21 10 38 6 27 14 34 54 45 26 7 82 28 125 46 l78 33 -7 -70 c-8
-92 6 -133 53 -155 52 -25 136 -23 242 6 36 10 49 21 75 63 59 93 100 195 136
336 19 76 23 96 35 182 7 45 9 47 71 79 147 74 269 237 398 531 21 47 97 275
102 308 3 14 10 41 15 60 6 19 13 56 16 81 4 41 2 48 -22 67 -22 17 -31 19
-51 10 -13 -6 -30 -21 -38 -32 -33 -51 -192 -246 -245 -301 -119 -122 -266
-248 -275 -233 -1 1 -7 21 -14 43 -21 65 -49 128 -78 175 l-22 36 48 71 c26
39 49 76 52 83 2 6 26 13 53 15 285 24 462 111 570 279 147 231 117 600 -86
1024 -53 112 -166 308 -222 387 -59 82 -104 143 -127 170 -263 310 -515 482
-724 494 -27 1 -72 13 -100 26 -86 38 -226 82 -321 100 -160 29 -254 38 -461
41 -127 2 -233 2 -235 0z"/>
</g>
</svg>
